<svg xmlns="http://www.w3.org/2000/svg" xmlns:xlink="http://www.w3.org/1999/xlink" style="display: inline-block;margin: -10px -10px 0px -10px;" width="24px" height="24px" viewBox="0 0 69 69" preserveAspectRatio="xMidYMid">
    <g transform="rotate(0 50 50)">
        <rect x="48" y="30.5" rx="1.1500000000000001" ry="1.1500000000000001" width="4" height="5" fill="#ffc891">
            <animate attributeName="opacity" values="1;0" keyTimes="0;1" dur="0.8928571428571428s" begin="-0.8333333333333333s" repeatCount="indefinite"/>
        </rect>
    </g><g transform="rotate(24 50 50)">
    <rect x="48" y="30.5" rx="1.1500000000000001" ry="1.1500000000000001" width="4" height="5" fill="#ffc891">
        <animate attributeName="opacity" values="1;0" keyTimes="0;1" dur="0.8928571428571428s" begin="-0.7738095238095237s" repeatCount="indefinite"/>
    </rect>
</g><g transform="rotate(48 50 50)">
    <rect x="48" y="30.5" rx="1.1500000000000001" ry="1.1500000000000001" width="4" height="5" fill="#ffc891">
        <animate attributeName="opacity" values="1;0" keyTimes="0;1" dur="0.8928571428571428s" begin="-0.7142857142857143s" repeatCount="indefinite"/>
    </rect>
</g><g transform="rotate(72 50 50)">
    <rect x="48" y="30.5" rx="1.1500000000000001" ry="1.1500000000000001" width="4" height="5" fill="#ffc891">
        <animate attributeName="opacity" values="1;0" keyTimes="0;1" dur="0.8928571428571428s" begin="-0.6547619047619048s" repeatCount="indefinite"/>
    </rect>
</g><g transform="rotate(96 50 50)">
    <rect x="48" y="30.5" rx="1.1500000000000001" ry="1.1500000000000001" width="4" height="5" fill="#ffc891">
        <animate attributeName="opacity" values="1;0" keyTimes="0;1" dur="0.8928571428571428s" begin="-0.5952380952380952s" repeatCount="indefinite"/>
    </rect>
</g><g transform="rotate(120 50 50)">
    <rect x="48" y="30.5" rx="1.1500000000000001" ry="1.1500000000000001" width="4" height="5" fill="#ffc891">
        <animate attributeName="opacity" values="1;0" keyTimes="0;1" dur="0.8928571428571428s" begin="-0.5357142857142857s" repeatCount="indefinite"/>
    </rect>
</g><g transform="rotate(144 50 50)">
    <rect x="48" y="30.5" rx="1.1500000000000001" ry="1.1500000000000001" width="4" height="5" fill="#ffc891">
        <animate attributeName="opacity" values="1;0" keyTimes="0;1" dur="0.8928571428571428s" begin="-0.47619047619047616s" repeatCount="indefinite"/>
    </rect>
</g><g transform="rotate(168 50 50)">
    <rect x="48" y="30.5" rx="1.1500000000000001" ry="1.1500000000000001" width="4" height="5" fill="#ffc891">
        <animate attributeName="opacity" values="1;0" keyTimes="0;1" dur="0.8928571428571428s" begin="-0.41666666666666663s" repeatCount="indefinite"/>
    </rect>
</g><g transform="rotate(192 50 50)">
    <rect x="48" y="30.5" rx="1.1500000000000001" ry="1.1500000000000001" width="4" height="5" fill="#ffc891">
        <animate attributeName="opacity" values="1;0" keyTimes="0;1" dur="0.8928571428571428s" begin="-0.35714285714285715s" repeatCount="indefinite"/>
    </rect>
</g><g transform="rotate(216 50 50)">
    <rect x="48" y="30.5" rx="1.1500000000000001" ry="1.1500000000000001" width="4" height="5" fill="#ffc891">
        <animate attributeName="opacity" values="1;0" keyTimes="0;1" dur="0.8928571428571428s" begin="-0.2976190476190476s" repeatCount="indefinite"/>
    </rect>
</g><g transform="rotate(240 50 50)">
    <rect x="48" y="30.5" rx="1.1500000000000001" ry="1.1500000000000001" width="4" height="5" fill="#ffc891">
        <animate attributeName="opacity" values="1;0" keyTimes="0;1" dur="0.8928571428571428s" begin="-0.23809523809523808s" repeatCount="indefinite"/>
    </rect>
</g><g transform="rotate(264 50 50)">
    <rect x="48" y="30.5" rx="1.1500000000000001" ry="1.1500000000000001" width="4" height="5" fill="#ffc891">
        <animate attributeName="opacity" values="1;0" keyTimes="0;1" dur="0.8928571428571428s" begin="-0.17857142857142858s" repeatCount="indefinite"/>
    </rect>
</g><g transform="rotate(288 50 50)">
    <rect x="48" y="30.5" rx="1.1500000000000001" ry="1.1500000000000001" width="4" height="5" fill="#ffc891">
        <animate attributeName="opacity" values="1;0" keyTimes="0;1" dur="0.8928571428571428s" begin="-0.11904761904761904s" repeatCount="indefinite"/>
    </rect>
</g><g transform="rotate(312 50 50)">
    <rect x="48" y="30.5" rx="1.1500000000000001" ry="1.1500000000000001" width="4" height="5" fill="#ffc891">
        <animate attributeName="opacity" values="1;0" keyTimes="0;1" dur="0.8928571428571428s" begin="-0.05952380952380952s" repeatCount="indefinite"/>
    </rect>
</g><g transform="rotate(336 50 50)">
    <rect x="48" y="30.5" rx="1.1500000000000001" ry="1.1500000000000001" width="4" height="5" fill="#ffc891">
        <animate attributeName="opacity" values="1;0" keyTimes="0;1" dur="0.8928571428571428s" begin="0s" repeatCount="indefinite"/>
    </rect>
</g>
</svg>